<svg xmlns="http://www.w3.org/2000/svg" width="41" height="41" viewBox="0 0 41 41" fill="none">
  <path d="M20.875 0.379883C31.9207 0.379883 40.875 9.33419 40.875 20.3799C40.875 31.4256 31.9207 40.3799 20.875 40.3799C9.8293 40.3799 0.875 31.4256 0.875 20.3799C0.875 9.33419 9.8293 0.379883 20.875 0.379883Z" fill="#7F4DA0"/>
  <path d="M26.2037 17.8443C26.1064 17.0541 25.8636 16.4335 25.4322 15.8839C24.8721 15.1762 24.1563 14.7524 23.0966 14.501C22.4059 14.3334 22.1269 14.3527 21.8771 14.5808C21.6445 14.7946 21.599 15.2231 21.7768 15.5006C21.9019 15.702 22.0461 15.7742 22.4473 15.8529C22.9816 15.9512 23.3508 16.0788 23.6867 16.2708C24.3995 16.6825 24.7315 17.3266 24.767 18.3694C24.7836 18.859 24.8259 19.0095 24.997 19.1832C25.3139 19.5006 25.878 19.4389 26.1173 19.059C26.2051 18.9158 26.2185 18.8535 26.2277 18.521C26.2339 18.3152 26.225 18.0088 26.2037 17.8443Z" fill="white"/>
  <path d="M28.9954 18.736C28.8546 16.3148 27.9076 14.3669 26.2128 12.9964C25.2579 12.2263 24.1037 11.6968 22.8384 11.4392C22.375 11.3471 21.5217 11.2725 21.3753 11.3152C21.2371 11.3547 21.0418 11.5043 20.9547 11.6396C20.8626 11.7863 20.8418 12.1138 20.9204 12.3032C21.0472 12.6199 21.2831 12.7318 21.9437 12.7896C22.9621 12.8787 24.0125 13.2365 24.8062 13.7662C25.7123 14.3693 26.4326 15.1942 26.8986 16.1636C27.3012 16.9964 27.5488 18.1967 27.5419 19.2715C27.5396 19.6602 27.5997 19.8798 27.756 20.0403C27.992 20.2871 28.3359 20.341 28.6395 20.1771C28.9759 20.0002 29.0546 19.6896 28.9954 18.736Z" fill="white"/>
  <path d="M32.0854 28.0611C32.0381 27.9227 31.9276 27.7092 31.8486 27.5867C31.3512 26.8356 28.679 24.7443 27.3448 24.0604C26.583 23.6691 26.0185 23.5386 25.6001 23.6611C25.1501 23.7877 24.9133 23.9971 24.1594 24.9341C23.8555 25.3096 23.5436 25.6615 23.4607 25.7168C23.2555 25.8591 22.8528 25.9738 22.5686 25.9738C21.9095 25.9698 20.7134 25.5429 19.7937 24.9815C19.0793 24.5467 18.1636 23.7679 17.4609 22.997C16.632 22.0917 16.0676 21.2932 15.6215 20.3918C15.0452 19.2336 14.8992 18.5259 15.1399 18.008C15.1991 17.8776 15.2781 17.7393 15.3136 17.6957C15.3491 17.6562 15.7202 17.3518 16.1307 17.0197C16.9359 16.3793 17.0662 16.2331 17.2162 15.7943C17.4056 15.2368 17.3544 14.6676 17.0623 14.0944C16.8372 13.6595 16.2491 12.7107 15.8228 12.098C15.2584 11.2916 13.8531 9.56797 13.5728 9.33467C13.0676 8.92357 12.4203 8.85237 11.7058 9.12915C10.9519 9.4217 9.53879 10.5602 8.93485 11.3548C8.39013 12.0743 8.18099 12.5842 8.14938 13.2563C8.12177 13.8097 8.16912 14.039 8.46122 14.7467C10.7467 20.2969 14.157 24.7285 18.8425 28.2469C21.2897 30.0851 23.8278 31.4846 26.4606 32.4413C27.9961 32.9987 28.6632 33.0263 29.4487 32.5678C29.7802 32.3701 30.6013 31.5281 31.0591 30.9153C31.817 29.8954 32.0973 29.425 32.1762 29.0494C32.2315 28.7924 32.1881 28.3458 32.0854 28.0611Z" fill="white"/>
  <path d="M31.8372 19.2926C31.7867 17.9231 31.5561 16.7997 31.0753 15.5473C30.6006 14.3153 30.1202 13.5114 29.2129 12.424C28.3551 11.4045 27.6888 10.8224 26.6321 10.1744C25.1578 9.27157 23.3637 8.67411 21.353 8.42284C20.6673 8.33503 20.5122 8.3413 20.3018 8.48167C19.8942 8.74757 19.8996 9.4108 20.3085 9.67272C20.4439 9.75604 20.564 9.78639 21.1125 9.85818C21.9545 9.97154 22.4959 10.0784 23.1383 10.2537C25.6575 10.9423 27.5948 12.3499 28.8899 14.4395C29.9738 16.1811 30.4237 17.9229 30.3598 20.1475C30.3376 20.8995 30.3537 21.0319 30.4687 21.2126C30.6888 21.5494 31.2694 21.616 31.5673 21.3365C31.7526 21.1662 31.7875 21.0383 31.824 20.3946C31.8415 20.0589 31.8453 19.5632 31.8372 19.2926Z" fill="white"/>
</svg>