<svg xmlns="http://www.w3.org/2000/svg" width="41" height="41" viewBox="0 0 41 41" fill="none">
  <path d="M20.875 40.3799C31.9207 40.3799 40.875 31.4256 40.875 20.3799C40.875 9.33419 31.9207 0.379883 20.875 0.379883C9.8293 0.379883 0.875 9.33419 0.875 20.3799C0.875 31.4256 9.8293 40.3799 20.875 40.3799Z" fill="#0971BD"/>
  <path fill-rule="evenodd" clip-rule="evenodd" d="M11.5419 14.6897C11.5419 14.6897 19.5914 19.2545 21.1538 19.2545C22.7913 19.2545 30.7537 14.7769 30.7537 14.7769L30.7665 13.9769C30.7665 13.0938 30.0497 12.377 29.1641 12.377H13.1434C12.2586 12.377 11.5419 13.0938 11.5419 13.9769V14.6897ZM30.7531 17.182C30.7531 17.182 22.8658 21.4595 21.153 21.4595C19.5906 21.4595 11.553 17.182 11.5538 17.182L11.541 26.782C11.541 27.6652 12.2586 28.382 13.1426 28.382H29.1635C30.0491 28.382 30.7659 27.6652 30.7659 26.782L30.7531 17.182Z" fill="white"/>
</svg>