<svg xmlns="http://www.w3.org/2000/svg" width="41" height="41" viewBox="0 0 41 41" fill="none">
  <path d="M0.875 20.3799C0.875 9.33419 9.8293 0.379883 20.875 0.379883C31.9207 0.379883 40.875 9.33419 40.875 20.3799C40.875 31.4256 31.9207 40.3799 20.875 40.3799C9.8293 40.3799 0.875 31.4256 0.875 20.3799Z" fill="#6FD454"/>
  <path d="M15.0179 10.4207C15.2607 10.4003 15.4689 10.4595 15.6036 10.6819C15.9056 11.1717 16.2097 11.6615 16.4975 12.1636C16.8301 12.7432 17.1363 13.3391 17.4628 13.9248C17.5465 14.082 17.6628 14.2248 17.7608 14.3759C17.8506 14.5187 17.9363 14.6657 18.02 14.8085C18.1914 15.133 18.1832 15.4596 17.9281 15.7187C17.5648 16.0902 17.1648 16.4351 16.7791 16.7882C16.4567 17.0841 16.122 17.3678 15.8077 17.6698C15.5628 17.9065 15.4995 18.2025 15.6648 18.5147C15.9199 18.9923 16.173 19.4698 16.4526 19.9372C17.4893 21.6658 18.8138 23.1352 20.4873 24.2679C21.1322 24.7067 21.8037 25.1087 22.4813 25.4924C23.12 25.8536 23.369 25.7924 23.8649 25.2393C24.3262 24.7271 24.7711 24.2066 25.2303 23.6903C25.3405 23.5658 25.4731 23.4556 25.6017 23.3495C25.8629 23.1291 26.1487 23.1046 26.4487 23.2556C26.5323 23.2964 26.6221 23.3332 26.6956 23.3862C27.4915 23.9556 28.3814 24.3577 29.2222 24.8414C29.6732 25.1005 30.112 25.3781 30.5549 25.6434C30.7936 25.7842 30.8896 25.9904 30.8732 26.274C30.8283 27.072 30.6957 27.8557 30.2324 28.5292C30.0385 28.8088 29.763 29.0537 29.4855 29.2516C28.7161 29.7904 27.8569 30.1231 26.9426 30.3272C26.1119 30.5129 25.2833 30.4455 24.4874 30.1965C22.9506 29.7231 21.4363 29.1802 20.0424 28.3577C18.7771 27.6087 17.6261 26.7046 16.5607 25.6944C15.2117 24.4107 14.0076 23.0107 13.0342 21.4168C12.3994 20.3821 11.9464 19.2678 11.5362 18.131C11.2872 17.4453 11.0423 16.7657 10.9321 16.0392C10.8055 15.2167 10.8933 14.4248 11.1566 13.6452C11.3933 12.9412 11.6892 12.2677 12.1362 11.6656C12.4872 11.1983 12.926 10.8554 13.4933 10.7023C13.9485 10.5819 14.4076 10.486 14.8648 10.3799C14.924 10.4268 14.9709 10.4268 15.0179 10.4207Z" fill="white"/>
</svg>