<svg xmlns="http://www.w3.org/2000/svg" width="41" height="41" viewBox="0 0 41 41" fill="none">
  <path d="M20.875 40.3799C31.9207 40.3799 40.875 31.4256 40.875 20.3799C40.875 9.33419 31.9207 0.379883 20.875 0.379883C9.8293 0.379883 0.875 9.33419 0.875 20.3799C0.875 31.4256 9.8293 40.3799 20.875 40.3799Z" fill="url(#paint0_linear_1_16201)"/>
  <path d="M17.2077 29.5462C16.5597 29.5462 16.6698 29.3016 16.4464 28.6846L14.541 22.4139L29.2077 13.7129" fill="#C8DAEA"/>
  <path d="M17.209 29.5461C17.709 29.5461 17.9299 29.3174 18.209 29.0461L20.8757 26.4531L17.5493 24.4473" fill="#A9C9DD"/>
  <path d="M17.5475 24.4484L25.6075 30.4033C26.5273 30.9108 27.1911 30.648 27.4202 29.5494L30.701 14.0889C31.0369 12.7422 30.1877 12.1314 29.3078 12.5308L10.0428 19.9593C8.7278 20.4868 8.73547 21.2204 9.80312 21.5473L14.7469 23.0904L26.1924 15.8695C26.7328 15.5419 27.2287 15.718 26.8216 16.0793" fill="url(#paint1_linear_1_16201)"/>
  <defs>
    <linearGradient id="paint0_linear_1_16201" x1="15.877" y1="2.04788" x2="5.877" y2="25.3799" gradientUnits="userSpaceOnUse">
      <stop stop-color="#37AEE2"/>
      <stop offset="1" stop-color="#1E96C8"/>
    </linearGradient>
    <linearGradient id="paint1_linear_1_16201" x1="18.3706" y1="21.6086" x2="20.5075" y2="28.5211" gradientUnits="userSpaceOnUse">
      <stop stop-color="#EFF7FC"/>
      <stop offset="1" stop-color="white"/>
    </linearGradient>
  </defs>
</svg>