<svg xmlns="http://www.w3.org/2000/svg" width="41" height="41" viewBox="0 0 41 41" fill="none">
  <path d="M20.875 40.3799C31.9207 40.3799 40.875 31.4256 40.875 20.3799C40.875 9.33419 31.9207 0.379883 20.875 0.379883C9.8293 0.379883 0.875 9.33419 0.875 20.3799C0.875 31.4256 9.8293 40.3799 20.875 40.3799Z" fill="#25D366"/>
  <path fill-rule="evenodd" clip-rule="evenodd" d="M21.5336 31.5066H21.5287C19.5383 31.506 17.5825 31.0066 15.8455 30.0591L9.54102 31.7129L11.2282 25.5503C10.1875 23.7467 9.63983 21.7008 9.64072 19.6048C9.64333 13.0476 14.9784 7.71289 21.5335 7.71289C24.7149 7.71426 27.7009 8.95278 29.9462 11.2007C32.1915 13.4486 33.4274 16.4365 33.4261 19.6141C33.4235 26.1698 28.0906 31.504 21.5336 31.5066ZM16.1376 27.9057L16.4985 28.1199C18.0162 29.0205 19.7558 29.497 21.5296 29.4977H21.5336C26.9817 29.4977 31.416 25.0634 31.4181 19.613C31.4192 16.9718 30.392 14.4883 28.5257 12.6199C26.6595 10.7515 24.1777 9.72206 21.5375 9.72114C16.0851 9.72114 11.6508 14.155 11.6487 19.605C11.6479 21.4728 12.1705 23.2917 13.16 24.8655L13.395 25.2395L12.3964 28.8871L16.1376 27.9057ZM27.118 22.1739C27.3253 22.2741 27.4652 22.3417 27.525 22.4415C27.5992 22.5654 27.5992 23.1603 27.3517 23.8546C27.104 24.5487 25.9169 25.1822 25.3459 25.2675C24.834 25.344 24.1861 25.376 23.4743 25.1497C23.0427 25.0128 22.4892 24.83 21.7803 24.5238C18.9945 23.3209 17.1119 20.6209 16.756 20.1106C16.7311 20.0748 16.7137 20.0498 16.704 20.0368L16.7016 20.0336C16.5443 19.8238 15.4906 18.4179 15.4906 16.9629C15.4906 15.5941 16.163 14.8766 16.4725 14.5464C16.4937 14.5238 16.5132 14.503 16.5306 14.4839C16.803 14.1864 17.1249 14.112 17.323 14.112C17.5211 14.112 17.7194 14.1138 17.8926 14.1225C17.9139 14.1236 17.9361 14.1235 17.9591 14.1233C18.1323 14.1223 18.3482 14.1211 18.5611 14.6326C18.6431 14.8295 18.763 15.1214 18.8894 15.4292C19.1451 16.0517 19.4276 16.7395 19.4773 16.839C19.5516 16.9878 19.6012 17.1613 19.5021 17.3597C19.4872 17.3894 19.4735 17.4175 19.4603 17.4443C19.386 17.5962 19.3312 17.7079 19.205 17.8554C19.1553 17.9133 19.104 17.9758 19.0527 18.0383C18.9504 18.1628 18.8482 18.2873 18.7592 18.376C18.6105 18.5242 18.4556 18.6849 18.6289 18.9824C18.8023 19.2799 19.3986 20.253 20.282 21.0409C21.2316 21.888 22.057 22.246 22.4753 22.4274C22.557 22.4628 22.6232 22.4915 22.6717 22.5158C22.9688 22.6646 23.1421 22.6397 23.3155 22.4415C23.4888 22.2432 24.0583 21.5738 24.2564 21.2763C24.4544 20.9789 24.6526 21.0285 24.9249 21.1276C25.1974 21.2268 26.6583 21.9456 26.9555 22.0944C27.0135 22.1234 27.0677 22.1496 27.118 22.1739Z" fill="#FDFDFD"/>
</svg>